<svg width="80" height="60" viewBox="0 0 80 60" fill="none" xmlns="http://www.w3.org/2000/svg">
<path opacity="0.3" d="M61.3601 16.2C62.4156 16.1936 63.4593 15.9788 64.4314 15.5677C65.4035 15.1567 66.2849 14.5576 67.0247 13.8049C67.7646 13.0522 68.3484 12.1608 68.7427 11.1817C69.137 10.2027 69.3339 9.15541 69.3221 8.10004C69.2977 6.52745 68.8088 4.99719 67.9171 3.70167C67.0253 2.40614 65.7704 1.40318 64.3102 0.818883C62.85 0.234589 61.2496 0.0950457 59.7103 0.417799C58.171 0.740552 56.7615 1.51119 55.659 2.63283C54.5564 3.75446 53.8101 5.17702 53.5139 6.72165C53.2176 8.26627 53.3846 9.86401 53.9939 11.314C54.6032 12.7639 55.6276 14.0014 56.9383 14.8708C58.2489 15.7401 59.7874 16.2026 61.3601 16.2ZM61.3601 21.6C60.5881 21.6 59.7091 21.654 58.7771 21.735C61.8661 24.003 64.0231 27.053 64.0231 31.048V53H80.0001V31.045C80.0001 24.755 67.5641 21.6 61.3601 21.6Z" fill="#FD4F26"/>
<path d="M39.9662 16.171C41.0206 16.1657 42.0635 15.9522 43.0351 15.5425C44.0066 15.1328 44.8876 14.535 45.6274 13.7837C46.3671 13.0323 46.951 12.1421 47.3456 11.1643C47.7401 10.1865 47.9374 9.14031 47.9262 8.08596C47.9045 6.51273 47.418 4.98106 46.5278 3.68367C45.6377 2.38628 44.3838 1.38113 42.9237 0.794696C41.4637 0.208264 39.8629 0.0667448 38.3226 0.387947C36.7824 0.709149 35.3716 1.47872 34.2676 2.59984C33.1637 3.72095 32.416 5.14352 32.1187 6.68854C31.8213 8.23357 31.9876 9.83203 32.5965 11.2828C33.2054 12.7336 34.2298 13.9719 35.5408 14.8418C36.8518 15.7118 38.3908 16.1746 39.9642 16.172L39.9662 16.171ZM39.9662 21.561C33.7662 21.561 21.3262 24.714 21.3262 30.994V60H58.6062V30.995C58.6062 24.715 46.1712 21.562 39.9662 21.562V21.561Z" fill="#FD4F26"/>
<path opacity="0.3" d="M18.64 16.2C17.5849 16.1931 16.5416 15.9779 15.5699 15.5666C14.5983 15.1553 13.7174 14.5562 12.978 13.8035C12.2386 13.0509 11.6551 12.1596 11.2611 11.1808C10.867 10.202 10.6703 9.15508 10.682 8.10004C10.7065 6.52745 11.1953 4.99719 12.0871 3.70167C12.9788 2.40614 14.2337 1.40318 15.6939 0.818883C17.1541 0.234589 18.7545 0.0950457 20.2938 0.417799C21.8331 0.740552 23.2426 1.51119 24.3452 2.63283C25.4477 3.75446 26.194 5.17702 26.4903 6.72165C26.7865 8.26627 26.6195 9.86401 26.0102 11.314C25.4009 12.7639 24.3765 14.0014 23.0659 14.8708C21.7552 15.7401 20.2168 16.2026 18.644 16.2H18.64ZM18.64 21.6C19.412 21.6 20.291 21.654 21.223 21.735C18.134 24 15.982 27.049 15.982 31.045V53H0V31.045C0 24.755 12.436 21.6 18.64 21.6Z" fill="#FD4F26"/>
</svg>
